<svg xmlns="http://www.w3.org/2000/svg" width="33" height="32" fill="none" viewBox="0 0 33 32">
  <path fill="#F2F0FF" d="M16.397 0A16.397 16.397 0 0 0 0 16.397c0 7.248 4.706 13.397 11.216 15.578.82.13 1.082-.378 1.082-.82v-2.771c-4.542.983-5.51-2.198-5.51-2.198-.754-1.902-1.82-2.41-1.82-2.41-1.492-1.017.115-.984.115-.984 1.64.115 2.509 1.69 2.509 1.69 1.426 2.491 3.837 1.754 4.772 1.36.147-1.066.573-1.787 1.032-2.197-3.64-.41-7.46-1.82-7.46-8.068 0-1.82.623-3.28 1.689-4.443-.164-.41-.738-2.116.164-4.33 0 0 1.377-.442 4.509 1.673a15.45 15.45 0 0 1 4.1-.54c1.393 0 2.803.18 4.099.54 3.131-2.115 4.509-1.672 4.509-1.672.902 2.213.328 3.919.164 4.329 1.066 1.164 1.689 2.623 1.689 4.443 0 6.264-3.837 7.641-7.494 8.051.59.509 1.132 1.509 1.132 3.034v4.493c0 .442.262.967 1.098.82 6.51-2.198 11.2-8.33 11.2-15.578A16.398 16.398 0 0 0 16.396 0Z"/>
</svg>
