<svg xmlns="http://www.w3.org/2000/svg" width="48" height="48" fill="none" viewBox="0 0 48 48">
  <circle cx="24" cy="24" r="24" fill="#F2F0FF"/>
  <path fill="url(#a)" d="M24.024 41.576c-2.688 0-5.264-.352-7.728-1.056-2.464-.736-4.448-1.68-5.952-2.832l2.64-5.856c1.44 1.024 3.136 1.872 5.088 2.544 1.984.64 3.984.96 6 .96 1.536 0 2.768-.144 3.696-.432.96-.32 1.664-.752 2.112-1.296a2.861 2.861 0 0 0 .672-1.872c0-.896-.352-1.6-1.056-2.112-.704-.544-1.632-.976-2.784-1.296a41.997 41.997 0 0 0-3.84-.96 54.465 54.465 0 0 1-4.176-1.152 17.82 17.82 0 0 1-3.792-1.728 8.717 8.717 0 0 1-2.832-2.784c-.704-1.152-1.056-2.624-1.056-4.416 0-1.92.512-3.664 1.536-5.232 1.056-1.6 2.624-2.864 4.704-3.792 2.112-.96 4.752-1.44 7.92-1.44 2.112 0 4.192.256 6.24.768 2.048.48 3.856 1.216 5.424 2.208l-2.4 5.904c-1.568-.896-3.136-1.552-4.704-1.968-1.568-.448-3.104-.672-4.608-.672-1.504 0-2.736.176-3.696.528-.96.352-1.648.816-2.064 1.392-.416.544-.624 1.184-.624 1.92 0 .864.352 1.568 1.056 2.112.704.512 1.632.928 2.784 1.248 1.152.32 2.416.64 3.792.96 1.408.32 2.8.688 4.176 1.104 1.408.416 2.688.976 3.84 1.68a8.274 8.274 0 0 1 2.784 2.784c.736 1.152 1.104 2.608 1.104 4.368a9.083 9.083 0 0 1-1.584 5.184c-1.056 1.568-2.64 2.832-4.752 3.792-2.08.96-4.72 1.44-7.92 1.44Z"/>
  <defs>
    <linearGradient id="a" x1="9" x2="50.433" y1="2" y2="31.192" gradientUnits="userSpaceOnUse">
      <stop stop-color="#0368FF"/>
      <stop offset="1" stop-color="#FF3E95"/>
    </linearGradient>
  </defs>
</svg>
